<svg width="39" height="40" viewBox="0 0 39 40" fill="none" xmlns="http://www.w3.org/2000/svg">
<g clip-path="url(#clip0_260_9)">
<path d="M21.039 0C21.4641 0.163652 21.9177 0.14489 22.3571 0.211602C25.2203 0.641059 27.8536 1.67718 30.2662 3.30849C31.1083 3.87763 31.3474 4.87205 30.8378 5.67259C30.3272 6.47313 29.3416 6.66389 28.4995 6.09684C25.4756 4.06213 22.1537 3.13441 18.5532 3.36686C14.1104 3.65352 10.3848 5.52874 7.40259 8.91437C5.27785 11.3264 3.95256 14.1596 3.48469 17.3701C2.81137 21.992 3.81017 26.2292 6.56653 29.9693C9.1866 33.5248 12.6753 35.7346 16.9746 36.3819C22.7711 37.2544 27.7061 35.4146 31.6627 30.9741C33.7915 28.585 35.0628 25.7393 35.5541 22.5476C35.9203 20.1699 35.7901 17.8089 35.1513 15.4844C34.8442 14.366 35.3649 13.4372 36.3973 13.234C37.2049 13.0745 37.9911 13.579 38.2352 14.4327C38.5851 15.6564 38.8089 16.9062 38.9238 18.1758C38.9309 18.2561 38.879 18.3645 39.0001 18.4083V18.72C38.9523 18.7721 38.9523 18.8242 39.0001 18.8763V19.1098C38.937 19.2922 38.937 19.4736 39.0001 19.656V20.124C38.938 20.2804 38.938 20.4357 39.0001 20.5921V20.8256C38.9502 20.8725 38.9635 20.934 38.9604 20.9923C38.9604 21.0372 38.9604 21.082 38.9604 21.1268C38.9635 21.1852 38.9502 21.2467 39.0001 21.2936V21.6053C38.9197 22.6122 38.8109 23.6129 38.5759 24.5979C37.8273 27.7344 36.4451 30.5363 34.3926 32.988C32.5679 35.1676 30.3974 36.8833 27.8607 38.1164C25.858 39.089 23.7618 39.7394 21.5567 39.9177C18.1768 40.1908 14.8733 39.8332 11.7395 38.3864C9.94841 37.5598 8.29053 36.5206 6.79843 35.204C4.43162 33.1141 2.63032 30.602 1.43013 27.6489C0.620514 25.6549 0.0987378 23.591 0.0285574 21.4166C-0.0365376 19.4006 -0.021281 17.3982 0.439469 15.4167C0.923613 13.3361 1.70068 11.3848 2.78085 9.56273C4.28516 7.02663 6.25123 4.92834 8.65567 3.2793C11.1252 1.58336 13.8389 0.508678 16.7925 0.0948559C17.1404 0.0458644 17.4964 0.0833898 17.8422 0H18.1463C18.1961 0.0542034 18.2612 0.0354407 18.3223 0.0406525C18.3701 0.0406525 18.4169 0.0406525 18.4647 0.0406525C18.5277 0.0406525 18.5908 0.0406525 18.6549 0.0406525C18.7159 0.036483 18.782 0.0552457 18.8318 0H20.2019C20.268 0.0677542 20.3524 0.0302288 20.4287 0.0406525C20.4765 0.0406525 20.5243 0.0406525 20.5711 0.0406525C20.6179 0.0406525 20.6657 0.0406525 20.7125 0.0406525C20.7725 0.036483 20.8376 0.0542034 20.8864 0H21.039Z" fill="#DF78ED"/>
<path d="M39.0001 5.38175C38.8028 5.90189 38.4224 6.2761 38.0471 6.6597C32.3065 12.5387 26.567 18.4187 20.8325 24.3039C20.3291 24.8209 19.7748 25.0941 19.0567 24.8866C18.7678 24.8032 18.5318 24.6364 18.3223 24.4217C16.1884 22.2348 14.0515 20.05 11.9217 17.8589C11.231 17.1491 11.2229 16.1203 11.88 15.4573C12.5401 14.7912 13.5267 14.811 14.2244 15.523C15.8965 17.2283 17.5666 18.9347 19.2245 20.6535C19.4513 20.8891 19.5612 20.91 19.8032 20.6608C25.2285 15.0841 30.666 9.51892 36.0953 3.94536C36.6445 3.38143 37.2609 3.17817 37.9922 3.45649C38.5424 3.66496 38.8181 4.1382 38.9981 4.68023V5.38175H39.0001Z" fill="#DF78ED"/>
<path d="M39 19.655C38.8871 19.4726 38.8729 19.2912 39 19.1088V19.655Z" fill="#232323"/>
<path d="M39.0001 20.5911C38.8821 20.4347 38.8861 20.2794 39.0001 20.123V20.5911Z" fill="#0E0E0E"/>
<path d="M18.6742 0.0656695C18.5989 0.0656695 18.5226 0.0677542 18.4474 0.0687966C18.425 0.0521186 18.4189 0.036483 18.427 0.0218898C18.4352 0.00729661 18.4433 0 18.4514 0H18.6793C18.7047 0.016678 18.7128 0.0323135 18.7027 0.0458644C18.6935 0.0594152 18.6833 0.0656695 18.6742 0.0656695Z" fill="#4E4E4E"/>
<path d="M20.4348 0.0687966C20.3474 0.0792203 20.2589 0.0938135 20.2019 0H20.4297C20.4531 0.0135508 20.4613 0.0281441 20.4552 0.0437796C20.4491 0.0604576 20.4419 0.0687966 20.4348 0.0687966Z" fill="#393939"/>
<path d="M18.2957 0.0656695C18.2337 0.0740084 18.1645 0.0969406 18.1472 0H18.2998C18.3252 0.0156356 18.3333 0.0312712 18.3242 0.044822C18.315 0.0583729 18.3059 0.0656695 18.2967 0.0656695H18.2957Z" fill="#909090"/>
<path d="M18.2957 0.0656695C18.2977 0.0437796 18.2997 0.0218898 18.2987 0H18.4513C18.4513 0.0229322 18.4513 0.0458644 18.4472 0.0687966C18.3963 0.0687966 18.3465 0.0667118 18.2957 0.0656695Z" fill="#717171"/>
<path d="M18.6741 0.0656695C18.6761 0.0437796 18.6781 0.0218898 18.6792 0H18.8317C18.7982 0.069839 18.7402 0.0771356 18.6741 0.0656695Z" fill="#363636"/>
<path d="M20.4348 0.0687966C20.4307 0.0458644 20.4297 0.0229322 20.4297 0H20.5823C20.6056 0.0135508 20.6148 0.0271017 20.6077 0.0427373C20.6006 0.0583729 20.5934 0.0656695 20.5863 0.0656695C20.5365 0.0656695 20.4856 0.0677542 20.4358 0.0687966H20.4348Z" fill="#5C5C5C"/>
<path d="M20.5853 0.0656695C20.5833 0.0437796 20.5823 0.0218898 20.5823 0H20.7348C20.7593 0.0135508 20.7674 0.0281441 20.7603 0.0427373C20.7531 0.0583729 20.746 0.0656695 20.7379 0.0656695C20.687 0.0656695 20.6372 0.0656695 20.5863 0.0656695H20.5853Z" fill="#787878"/>
<path d="M20.7369 0.0656695C20.7349 0.0437796 20.7339 0.0218898 20.7339 0H20.8865C20.8681 0.097983 20.8 0.0760932 20.7369 0.0656695Z" fill="#939393"/>
<path d="M39.0001 18.8743C38.9025 18.8221 38.8893 18.77 39.0001 18.7179V18.8743Z" fill="#787878"/>
<path d="M38.936 20.985C38.9238 20.9183 38.9279 20.8578 38.9991 20.8245V20.9808C38.9797 21.0142 38.9584 21.0152 38.936 20.985Z" fill="#4B4B4B"/>
<path d="M38.9358 20.985C38.9572 20.985 38.9786 20.9829 38.9989 20.9808V21.1372C38.9796 21.1695 38.9582 21.1726 38.9348 21.1414C38.9348 21.0892 38.9348 21.0371 38.9358 20.986V20.985Z" fill="#646464"/>
<path d="M38.935 21.1404C38.9563 21.1394 38.9777 21.1373 38.999 21.1362V21.2926C38.9044 21.2738 38.9258 21.205 38.935 21.1404Z" fill="#848484"/>
</g>
<defs>
<clipPath id="clip0_260_9">
<rect width="39" height="40" fill="white"/>
</clipPath>
</defs>
</svg>
