<svg width="188" height="188" viewBox="0 0 188 188" fill="none" xmlns="http://www.w3.org/2000/svg">
<path d="M93.5206 0C41.8436 0 0 41.8436 0 93.5206C0 145.198 41.8436 187.041 93.5206 187.041C145.198 187.041 187.041 145.156 187.041 93.5206C187.041 41.8847 145.156 0 93.5206 0ZM94.4257 47.3157C110.554 47.3157 124.132 60.8933 123.885 76.7338C123.597 92.6977 110.39 105.699 94.4669 105.699C78.3795 105.699 64.802 92.1217 65.0077 76.2812C65.2546 60.3996 78.503 47.3157 94.4257 47.3157ZM137.586 154.126C124.502 163.136 110.06 167.662 94.22 167.991C78.2561 167.457 63.6088 163.013 50.5661 153.591C47.7272 151.534 47.8917 150.258 50.1958 147.913C75.2937 121.91 112.899 121.745 138.285 147.46C141.371 150.587 140.589 152.027 137.545 154.167L137.586 154.126Z" fill="#D859ED"/>
<path d="M64.9666 76.24C65.2134 60.3584 78.4618 47.2746 94.3846 47.2746C106.728 47.2746 117.549 55.2154 121.869 66.0774L160.092 27.8546C143.099 10.6563 119.565 0 93.5206 0C41.8436 0 0 41.8847 0 93.5206C0 119.565 10.6563 143.14 27.8546 160.092L84.1809 103.765C72.9897 99.4865 64.802 88.5833 64.9666 76.24Z" fill="#DF78ED"/>
</svg>
