<svg width="48" height="48" viewBox="0 0 48 48" fill="none" xmlns="http://www.w3.org/2000/svg">
<path d="M0.854028 31.6016C0.0965137 30.648 0.0407838 29.4818 0.0325275 28.3672C-0.00875389 22.6621 -0.012882 16.9549 0.0325275 11.2499C0.0449119 9.76579 0.0841293 8.29823 1.36798 7.09694C2.53418 6.00711 3.82629 5.56334 5.32687 5.42917C6.26808 5.34455 7.45286 5.84818 8.08859 5.15878C8.67479 4.52511 8.22689 3.37749 8.29087 2.45898C8.30739 2.21954 8.28262 1.97598 8.30532 1.73862C8.37137 1.06366 8.59429 0.411418 9.24035 0.136897C9.9153 -0.147945 10.582 0.0192446 11.129 0.568287C12.4603 1.90581 13.8494 3.18759 15.1229 4.57671C15.8743 5.39408 16.7309 5.65209 17.7773 5.64797C22.9334 5.63145 28.0894 5.61494 33.2455 5.6459C34.6759 5.65416 36.1228 5.65003 37.3984 6.5479C38.9052 7.60677 39.803 9.63369 39.4274 11.3716C39.0786 11.5966 38.6905 11.479 38.3231 11.479C29.8749 11.4872 21.4246 11.4872 12.9763 11.479C12.4211 11.479 11.8782 11.4934 11.3725 11.7514C8.47251 12.5523 6.21442 15.12 5.96673 18.0633C5.58488 22.6146 5.87591 27.1762 5.82225 31.7337C5.79541 34.1012 5.1927 34.4934 3.00066 33.4531C2.44749 33.1909 1.88813 32.9123 1.48357 32.421C1.28748 32.1382 1.05218 31.8864 0.854028 31.6037V31.6016Z" fill="white"/>
<path d="M11.3705 11.7494C11.7523 11.3882 12.2374 11.351 12.7204 11.351C21.6227 11.3531 30.525 11.3613 39.4274 11.3675C38.9361 11.5884 38.4139 11.5079 37.9041 11.5079C31.0762 11.5141 24.2503 11.5058 17.4223 11.5161C15.4037 11.5203 13.3767 11.3861 11.3705 11.7494Z" fill="white"/>
<path d="M9.3291 16.344C9.30846 16.6804 9.14127 16.9364 8.89152 17.149C8.87913 16.796 9.06283 16.5483 9.3291 16.344Z" fill="white"/>
<path d="M0.854025 31.6016C1.16364 31.7977 1.39068 32.0557 1.48357 32.419C1.16983 32.227 0.922139 31.9834 0.854025 31.6016Z" fill="white"/>
<path d="M11.1434 41.7321C11.4861 41.7238 11.7585 41.8827 12.0041 42.1036C11.645 42.1469 11.3705 41.9942 11.1434 41.7321Z" fill="white"/>
<path d="M8.93899 39.6081C9.20113 39.734 9.31878 39.959 9.36213 40.2335C9.12682 40.0891 8.99266 39.8765 8.93899 39.6081Z" fill="white"/>
<path d="M47.9726 19.4917C47.9561 16.0963 45.9808 14.1065 42.571 14.0983C32.8451 14.0756 23.1192 14.088 13.3933 14.123C11.6863 14.1292 10.2724 14.8496 9.3291 16.3419C9.08141 16.5545 9.14127 16.9343 8.89152 17.1469C8.53237 18.0572 8.44774 19.0108 8.44774 19.9767C8.44774 25.4052 8.45393 30.8317 8.44774 36.2602C8.44774 37.4037 8.59016 38.5183 8.94106 39.6081C9.11031 39.798 9.12889 40.089 9.36419 40.2335C9.84099 40.8713 10.3962 41.4162 11.1455 41.732C11.4179 41.8889 11.7441 41.9219 12.0062 42.1036C12.6646 42.3389 13.3499 42.3637 14.0393 42.3616C19.5731 42.3575 25.1069 42.374 30.6406 42.343C31.4704 42.3389 32.0793 42.601 32.6387 43.179C33.9741 44.5619 35.3219 45.9304 36.6987 47.272C37.2126 47.7736 37.7864 48.2504 38.6183 47.8603C39.3902 47.497 39.5863 46.8571 39.5781 46.081C39.5677 45.1522 39.607 44.2234 39.5719 43.2966C39.545 42.5783 39.8402 42.31 40.5461 42.3492C41.2665 42.3884 41.9889 42.3616 42.7113 42.3554C45.8549 42.3244 47.9582 40.2769 47.9747 37.1209C48.0077 31.2445 48.0077 25.366 47.9788 19.4896L47.9726 19.4917ZM35.9226 25.1245C33.8709 26.6747 31.8048 28.2041 29.7428 29.7398C29.5467 30.0515 29.2969 30.2909 28.9274 30.3817C27.6415 31.3518 26.368 32.3405 25.0656 33.2879C24.015 34.0516 23.2513 33.8535 22.6527 32.6832C21.8085 31.034 20.9808 29.3786 20.1634 27.7149C19.7155 26.8047 19.9095 25.9935 20.6154 25.6612C21.3564 25.3124 22.0438 25.6158 22.5226 26.5405C23.0118 27.4838 23.5031 28.4312 23.9427 29.3972C24.2854 30.1505 24.6012 30.3879 25.3814 29.7852C28.1741 27.6262 31.0184 25.5374 33.8441 23.4217C34.036 23.2793 34.2239 23.1245 34.4303 23.0068C35.1403 22.6043 35.8627 22.5651 36.3375 23.304C36.7668 23.9728 36.5521 24.6477 35.9246 25.1225L35.9226 25.1245Z" fill="white"/>
</svg>
