<svg width="45" height="48" viewBox="0 0 45 48" fill="none" xmlns="http://www.w3.org/2000/svg">
<path d="M36.2487 22.8054C36.2487 22.6176 36.2575 22.4299 36.2375 22.2434C36.2237 22.1057 36.2287 21.938 36.0748 21.8817C35.9271 21.8266 35.8144 21.9493 35.7068 22.0356C35.5842 22.1332 35.4778 22.2484 35.3676 22.3585C34.7043 23.0194 34.0547 23.694 33.3788 24.3411C31.3938 26.2435 28.4964 26.3887 26.3248 24.7015C24.8517 23.5563 24.2697 21.9893 24.266 20.1858C24.2522 14.849 24.2635 9.51089 24.2597 4.17408C24.2597 2.96004 24.4249 1.78228 24.888 0.649588C25.1308 0.0563308 25.0808 0.00251214 24.4212 0.00251214C18.2896 0.00251214 12.1568 0.0100217 6.02394 8.95077e-06C3.60585 -0.00374584 1.92496 1.17401 0.753461 3.20285C0.215275 4.13528 0.0663346 5.1666 0.00375479 6.21794C-0.0012516 6.31181 0.00250319 6.40568 0.00250319 6.4983C0.00250319 15.8152 0.00375479 25.1321 0 34.449C0 35.2963 0.152695 36.0986 0.608276 36.8182C1.97001 38.9647 3.90498 40.135 6.46825 40.1775C8.09032 40.2038 9.71364 40.18 11.337 40.1838C11.9628 40.1838 11.9878 40.2126 11.989 40.8496C11.9916 42.5042 11.989 44.1576 11.989 45.8122C11.989 45.9999 11.9853 46.1864 11.9978 46.3742C12.0666 47.3504 12.4171 47.7722 13.3495 48H14.0054C14.3859 47.9437 14.6975 47.7509 14.9766 47.4994C15.9128 46.657 16.869 45.836 17.7839 44.9724C18.0681 44.7045 18.2671 44.7083 18.5286 44.9611C19.2095 45.622 19.9229 46.249 20.6438 46.8635C21.1407 47.2866 21.5287 47.8823 22.2471 48H22.9968C23.8855 47.7797 24.2572 47.3091 24.261 46.3654C24.2685 44.5869 24.2635 42.8071 24.2635 41.0286C24.2635 40.4646 24.5451 40.1825 25.1083 40.1825C27.9795 40.1825 30.8506 40.175 33.7218 40.185C35.1874 40.19 36.2863 39.3752 36.2688 37.6455C36.2175 32.6992 36.2513 27.7517 36.25 22.8041L36.2487 22.8054ZM11.8063 36.016C10.8551 36.0059 9.90263 36.0122 8.95142 36.0122C8.04652 36.0122 7.14161 36.0185 6.23671 36.011C5.09025 36.0022 4.20662 35.1711 4.17408 34.0847C4.14153 32.9671 4.98386 32.0396 6.14284 32.0196C8.04527 31.9871 9.94894 32.0146 11.8526 32.0033C12.1142 32.0021 12.1618 32.1035 12.1593 32.3338C12.1505 33.4564 12.1442 34.5804 12.163 35.7043C12.168 36.0009 12.0416 36.021 11.8063 36.0185V36.016ZM31.7968 36.0185C30.5803 36.0009 29.3637 36.011 28.1472 36.011C26.9306 36.011 25.7141 36.0022 24.4975 36.0172C24.2084 36.021 24.1295 35.9434 24.1345 35.653C24.1521 34.5616 24.1496 33.469 24.1358 32.3776C24.132 32.1022 24.1921 31.9983 24.4938 31.9996C26.9269 32.0121 29.36 32.0121 31.7918 31.9996C32.0897 31.9983 32.1573 32.0947 32.1535 32.3738C32.1385 33.4652 32.1373 34.5578 32.1535 35.6492C32.1585 35.9333 32.0884 36.021 31.7943 36.0172L31.7968 36.0185Z" fill="white"/>
<path d="M36.1574 16.1218C34.6567 17.6287 33.1924 19.0981 31.728 20.5675C31.3863 20.9104 31.0509 21.2596 30.6979 21.59C30.2211 22.0356 29.6679 22.1595 29.0596 21.8967C28.4538 21.6351 28.1484 21.1545 28.1484 20.4999C28.1459 14.8202 28.1359 9.14041 28.1547 3.46066C28.1609 1.59828 29.7017 0.0713358 31.5665 0.0575683C34.6092 0.0362911 37.6518 0.0350395 40.6944 0.0575683C42.6682 0.0713358 44.1301 1.64835 44.1338 3.7285C44.1413 7.94138 44.1363 12.1543 44.1363 16.3684C44.1363 17.7101 44.1463 19.0518 44.1326 20.3948C44.1213 21.5262 43.2352 22.2421 42.2214 21.9693C41.891 21.8804 41.6494 21.6676 41.4153 21.4336C39.772 19.789 38.1274 18.1456 36.4853 16.501C36.3764 16.3922 36.2813 16.2682 36.1574 16.1256V16.1218Z" fill="white"/>
</svg>
