<svg width="48" height="48" viewBox="0 0 48 48" fill="none" xmlns="http://www.w3.org/2000/svg">
<g clip-path="url(#clip0_285_13)">
<path d="M13.7222 39.9859C10.6205 39.9859 7.51886 39.9859 4.41718 39.9859C1.66791 39.9835 0.0120688 38.33 0.0120688 35.5878C0.0120688 31.9018 0.0193101 28.2134 0 24.5274C0 24.0857 0.108619 23.977 0.543096 23.9843C2.20135 24.0132 3.8596 24.0108 5.51544 23.9843C5.94026 23.977 6.02474 24.1122 6.01509 24.5057C5.98612 25.5002 6.0175 26.4947 5.99819 27.4892C5.99095 27.8417 6.04647 28.0082 6.46405 27.9961C7.51644 27.9624 8.57126 27.9744 9.62365 27.9913C9.93262 27.9961 10.0243 27.902 10.0195 27.5954C10.0026 26.5237 10.0243 25.4495 10.005 24.3777C10.0002 24.0688 10.0919 23.9891 10.3961 23.9891C14.8036 23.9988 19.2135 23.9988 23.621 23.9891C23.9372 23.9891 24.0024 24.0881 24.0024 24.3826C23.9952 29.4348 23.9903 34.4871 24.0072 39.5393C24.0072 39.9762 23.8238 39.9907 23.4907 39.9907C20.2321 39.9835 16.976 39.9859 13.7174 39.9859H13.7222Z" fill="white"/>
<path d="M43.9885 12.3712C43.9861 9.66284 42.3279 8.00692 39.61 8.00451C37.2493 8.0021 34.8887 7.99244 32.5304 8.01416C32.108 8.01658 31.9535 7.92968 31.9704 7.47346C32.0066 6.38238 31.9873 5.28889 31.9801 4.19541C31.9656 1.70428 30.2735 0.00974019 27.7898 0.00491243C23.9278 -0.00232921 20.0658 -0.00232921 16.2037 0.00491243C13.749 0.00974019 12.0497 1.69463 12.0207 4.1423C12.0086 5.21406 11.9917 6.28824 12.0304 7.36C12.0473 7.85968 11.9386 8.02382 11.398 8.01416C8.99868 7.98037 6.5994 7.9852 4.20013 8.00451C1.80327 8.02623 0.0532915 9.67733 0.0219127 11.9753C-0.0142937 14.5099 0.0194989 17.0469 0.00501638 19.5839C0.00501638 19.9146 0.0919117 20.0136 0.427424 20.0111C2.14361 19.9942 3.85979 19.9918 5.57597 20.0136C5.96459 20.0184 6.0201 19.8736 6.01286 19.5404C5.99355 18.5073 6.01769 17.4717 6.00079 16.4386C5.99596 16.1176 6.07562 15.9945 6.42079 16.0017C7.47318 16.0234 8.528 16.0258 9.5804 16.0017C9.96177 15.992 10.0294 16.1345 10.0221 16.4748C10.0028 17.45 10.0414 18.4276 10.0028 19.4004C9.98349 19.876 10.0994 20.0208 10.599 20.016C14.4031 19.9942 18.2072 20.0039 22.0088 20.0039C25.8105 20.0039 29.617 19.9942 33.4187 20.016C33.8845 20.0184 34.0052 19.8905 33.9883 19.4366C33.9545 18.4614 34.0004 17.4862 33.9666 16.511C33.9521 16.0886 34.0921 15.9896 34.4928 16.0017C35.5066 16.0282 36.5228 16.0282 37.5341 16.0017C37.8962 15.992 37.9952 16.0934 37.9879 16.4555C37.9638 17.4886 37.9952 18.5242 37.971 19.5573C37.9638 19.9194 38.07 20.0184 38.432 20.0136C40.1096 19.9942 41.7872 19.987 43.4647 20.0184C43.9282 20.028 44.0006 19.8711 43.9982 19.456C43.9789 17.0952 43.9909 14.7344 43.9885 12.3736V12.3712ZM27.9974 7.59898C28.0046 7.94416 27.8888 8.01416 27.5677 8.01175C25.6946 7.99727 23.8216 8.00451 21.9509 8.00451C20.0802 8.00451 18.3616 7.99244 16.5682 8.01416C16.1627 8.01899 15.9841 7.96347 16.0058 7.48794C16.0493 6.47652 16.0348 5.46028 16.0106 4.44404C16.001 4.07471 16.1193 3.99023 16.4741 3.99264C20.1599 4.00471 23.8481 4.00471 27.5339 3.99264C27.8815 3.99264 28.0094 4.06264 27.9998 4.43921C27.9732 5.49166 27.9756 6.54653 27.9998 7.59898H27.9974Z" fill="white"/>
<path d="M47.9976 24.595C47.9976 24.1243 47.9107 23.9795 47.4062 23.9819C41.1232 24.0012 34.8402 23.9988 28.5596 23.9867C28.1227 23.9867 27.9755 24.0664 27.9779 24.5467C27.9996 28.351 27.9899 32.1577 27.9899 35.962C27.9899 39.7662 27.9996 43.5343 27.9803 47.3193C27.9779 47.8189 28.0599 48.0048 28.6272 48.0024C34.8716 47.9782 41.1135 47.9807 47.3579 48C47.86 48 48.0048 47.901 48.0024 47.37C47.9831 39.7783 47.9831 32.1891 48 24.5974L47.9976 24.595ZM33.9761 30.3811C33.9712 30.0842 34.0485 29.9731 34.3647 29.9755C36.7808 29.9876 39.1994 29.9852 41.6156 29.9755C41.8835 29.9755 41.9994 30.0383 41.997 30.3304C41.9825 31.4214 41.9801 32.5149 41.997 33.606C42.0042 33.944 41.8522 33.9826 41.5746 33.9802C40.3653 33.9705 39.1584 33.9753 37.9491 33.9753C36.7398 33.9753 35.6488 33.9608 34.4998 33.9826C34.1088 33.9898 33.9543 33.9053 33.9688 33.4757C34.0002 32.4425 33.9881 31.4094 33.9736 30.3762L33.9761 30.3811ZM41.5191 41.9942C40.3291 41.9773 39.1415 41.987 37.9515 41.987C36.7615 41.987 35.6126 41.9749 34.4419 41.9942C34.0943 41.9991 33.9616 41.9194 33.9712 41.5428C33.9978 40.5097 33.993 39.4766 33.9712 38.4434C33.964 38.0982 34.0461 37.9679 34.4202 37.9703C36.7977 37.9848 39.1777 37.9824 41.5553 37.9703C41.8739 37.9703 42.0042 38.0427 41.997 38.3903C41.9753 39.4428 41.9728 40.4952 41.997 41.5477C42.0066 41.9339 41.8497 41.9942 41.5166 41.9894L41.5191 41.9942Z" fill="white"/>
</g>
<defs>
<clipPath id="clip0_285_13">
<rect width="48" height="48" fill="white"/>
</clipPath>
</defs>
</svg>
