<svg width="37" height="48" viewBox="0 0 37 48" fill="none" xmlns="http://www.w3.org/2000/svg">
<path d="M9.80778 24.5181C4.98432 20.9301 3.19942 14.349 5.50036 8.62704C7.75273 3.02344 13.8268 -0.643483 19.6338 0.0941517C29.2716 1.31747 34.6476 10.8946 30.6316 19.6855C30.5496 19.8676 30.501 20.068 30.4373 20.2592C30.0578 20.8815 29.6996 21.522 29.2291 22.0836C25.6077 26.5731 20.9057 28.1941 15.293 27.2076C13.7631 26.9374 12.303 26.3546 11.0311 25.4014C10.5818 25.1616 10.251 24.7609 9.80171 24.5181H9.80778Z" fill="white"/>
<path d="M36.1987 44.5314C36.6874 48.5019 36.6844 47.9737 33.151 47.9797C22.9122 47.9949 12.6733 47.9888 2.43446 47.9888C-0.0698525 47.9888 -0.218594 47.8128 0.151741 45.2872C0.230665 44.7378 0.34298 44.1944 0.440117 43.648C0.740635 42.7313 0.816524 41.7387 1.33256 40.8918C4.43185 34.2348 9.57708 30.3858 16.9231 29.6694C19.9252 29.378 22.8333 29.9304 25.5865 31.1963C25.9356 31.5029 26.4638 31.4543 26.7946 31.8003C30.1155 33.4001 32.4498 36.0288 34.3895 39.0704C34.5838 39.4863 34.7083 39.9356 34.9602 40.3241C35.0908 40.7886 35.2213 41.253 35.3518 41.7144C35.6827 42.6372 35.8041 43.6268 36.1987 44.5314Z" fill="white"/>
</svg>
