<svg width="48" height="48" viewBox="0 0 48 48" fill="none" xmlns="http://www.w3.org/2000/svg">
<path d="M14.8496 38.8257C8.41454 33.3345 3.41563 26.8492 0.870266 18.6693C-1.34086 11.5641 0.675599 5.63278 6.75804 1.34474C9.81395 -0.808453 13.6889 -0.346269 16.3775 2.51854C17.6668 3.89409 18.9266 5.29898 20.1791 6.71121C22.7134 9.56868 22.8897 13.2772 20.4582 16.2007C19.6208 17.2094 19.6832 17.9834 20.2452 18.9811C22.4012 22.796 25.402 25.7561 29.1999 27.9203C30.063 28.4119 30.8197 28.3972 31.6901 27.6782C34.7901 25.1179 38.4411 25.2756 41.4529 27.9827C42.7678 29.1638 44.0681 30.3596 45.383 31.5444C48.707 34.5413 48.8025 38.6386 46.0221 42.1307C42.3711 46.7195 37.7689 48.726 32.0317 47.7649C27.716 47.0386 23.7565 45.2522 20.1166 42.8166C18.809 41.9399 17.3803 41.2063 16.3445 39.9665C15.889 39.53 15.4373 39.0861 14.8496 38.8257Z" fill="white"/>
</svg>
