<svg width="52" height="48" viewBox="0 0 52 48" fill="none" xmlns="http://www.w3.org/2000/svg">
<path d="M48.4594 16.7451C49.1119 17.3131 49.7674 17.8754 50.4142 18.4464C51.889 19.7545 52.3461 21.3772 51.7395 23.1397C51.1502 24.8557 49.8335 25.5199 48.1661 25.4879C46.976 25.4646 46.7287 26.0268 46.7345 27.0873C46.7632 32.372 46.7546 37.6596 46.7431 42.9443C46.7345 46.5976 45.507 47.8358 41.9049 47.8474C39.3693 47.8562 36.8309 47.8066 34.2953 47.862C32.9816 47.8911 32.4152 47.4716 32.4526 46.0266C32.5417 42.6355 32.4842 39.2386 32.4785 35.8446C32.4727 31.7281 29.8394 29.0217 25.9901 28.9168C22.8681 28.8323 19.2919 31.8039 19.5248 35.9262C19.7174 39.3581 19.5305 42.8103 19.5794 46.2539C19.5966 47.5007 19.1165 48.0164 17.8948 47.9989C15.2643 47.961 12.6282 48.0397 9.99775 47.9698C6.63138 47.8766 5.32336 46.4898 5.31474 43.1191C5.30036 37.881 5.28311 32.6429 5.33199 27.4077C5.34349 26.12 5.102 25.4238 3.61287 25.4704C2.05187 25.5199 0.870335 24.7217 0.29538 23.1747C-0.334196 21.485 0.062523 19.9817 1.2958 18.7785C2.39109 17.7094 3.63299 16.8004 4.81165 15.8186C5.21125 15.5419 5.59359 15.2447 5.93569 14.8951C7.3932 13.6599 8.85071 12.4217 10.3053 11.1865C10.6561 10.8573 11.0585 10.5922 11.3978 10.2484C12.8524 9.00733 14.307 7.76627 15.7617 6.52812C16.1181 6.20474 16.5062 5.92506 16.8627 5.60169C18.8176 3.99355 20.5022 2.01833 22.7905 0.855923C25.6509 -0.594899 28.3906 -0.157904 30.8082 1.83771C35.0974 5.37445 39.2975 9.01899 43.5435 12.6082C44.8573 13.7211 46.1998 14.799 47.5308 15.8915C47.8729 16.1362 48.123 16.4829 48.4536 16.7421L48.4594 16.7451Z" fill="white"/>
</svg>
