<svg width="36" height="41" viewBox="0 0 36 41" fill="none" xmlns="http://www.w3.org/2000/svg">
<path d="M35.8327 0.0602824C35.7793 0.0590139 35.7259 0.0602824 35.673 0.0602824C33.9148 0.0581683 32.1562 0.0560541 30.3985 0.0535171C26.2661 0.0480203 22.1334 0.0547856 18.0011 0.0188449C17.4151 0.0188449 16.8288 0.0196905 16.2429 0.0188449C14.4771 0.0167307 12.7117 0.0133481 10.9459 0.0112339C7.38301 0.00742841 3.82093 0.00362292 0.258843 0.000240266C0.205462 0.000240266 0.152082 0.00235443 0.0991251 0.000240266C0.0199017 -0.00314239 -0.00636486 0.0289928 0.00126092 0.109331C0.0245619 0.358802 0.0406608 0.608696 0.0605725 0.858589C0.110564 1.49411 0.160131 2.13005 0.211817 2.76514C0.283415 3.64294 0.357131 4.51989 0.429152 5.39769C0.479567 6.01038 0.52744 6.62348 0.578278 7.23617C0.647757 8.07591 0.720202 8.91523 0.789258 9.75498C0.841367 10.3905 0.88924 11.026 0.940926 11.6615C1.01337 12.5469 1.08751 13.4319 1.15996 14.3169C1.20995 14.922 1.25824 15.5275 1.30781 16.1326C1.37941 17.0023 1.4527 17.8725 1.52387 18.7423C1.57514 19.363 1.62343 19.9833 1.6747 20.6036C1.74502 21.4585 1.81747 22.3131 1.88779 23.1681C1.93906 23.796 1.98735 24.4243 2.03861 25.0522C2.10979 25.922 2.1835 26.7922 2.2551 27.6619C2.30552 28.2746 2.35339 28.8877 2.4038 29.5004C2.47456 30.3554 2.547 31.2099 2.61733 32.0649C2.66859 32.6928 2.71646 33.3211 2.76815 33.949C2.8389 34.8112 2.91304 35.6733 2.98294 36.5359C3.002 36.7752 2.99692 36.7748 3.22654 36.8391C5.97775 37.6112 8.72854 38.3837 11.4793 39.1553C13.6374 39.7613 15.7959 40.3663 17.954 40.9735C18.0748 41.0078 18.1875 41.0103 18.3091 40.9722C18.6357 40.8712 18.9649 40.779 19.2936 40.6839C22.8494 39.6568 26.4047 38.6306 29.96 37.6035C30.8509 37.3465 31.7406 37.086 32.6324 36.8336C32.7697 36.7947 32.837 36.7279 32.8391 36.5854C32.8412 36.4488 32.8535 36.3126 32.8654 36.1761C32.9366 35.3596 33.0094 34.5431 33.0806 33.7266C33.1315 33.1444 33.1789 32.5617 33.2297 31.9795C33.3013 31.1554 33.3751 30.3313 33.4467 29.5067C33.4966 28.9321 33.5445 28.3575 33.5945 27.7824C33.6661 26.9579 33.7398 26.1342 33.8118 25.3097C33.8627 24.7275 33.911 24.1452 33.9622 23.563C34.033 22.7541 34.105 21.9448 34.1753 21.1359C34.227 20.5385 34.2762 19.941 34.3283 19.3435C34.3982 18.5423 34.4706 17.741 34.5401 16.9389C34.5918 16.3419 34.6405 15.744 34.6926 15.1465C34.7629 14.3376 34.8354 13.5283 34.9061 12.7195C34.9574 12.1296 35.0057 11.5398 35.057 10.9499C35.1277 10.133 35.2014 9.31692 35.2722 8.50001C35.3234 7.91016 35.3717 7.32031 35.423 6.73046C35.4942 5.91355 35.5675 5.09748 35.6386 4.28057C35.6895 3.69833 35.7365 3.11567 35.7878 2.53385C35.8555 1.77022 35.9267 1.007 35.9941 0.243369C36.0098 0.0645108 36.0059 0.0636651 35.8322 0.0594368L35.8327 0.0602824ZM16.1514 32.6923C13.7217 32.0162 11.2912 31.3422 8.86114 30.667C8.65906 30.6103 8.66372 30.6086 8.6455 30.3892C8.5756 29.5499 8.50146 28.7105 8.43071 27.8712C8.37902 27.2509 8.33115 26.6306 8.27989 26.0103C8.21931 25.2767 8.15364 24.5435 8.09772 23.8099C8.07442 23.5051 8.03714 23.5279 8.36165 23.5279C9.64787 23.527 10.9341 23.5279 12.2199 23.5279C12.258 23.5279 12.2961 23.527 12.3343 23.5279C12.4969 23.5325 12.5046 23.5372 12.5211 23.6869C12.5537 23.9731 12.5838 24.2602 12.6143 24.5465C12.6939 25.2936 12.7778 26.0399 12.8486 26.7879C12.8626 26.9359 12.9553 26.9524 13.0579 26.979C13.6688 27.1355 14.2801 27.2911 14.891 27.4471C15.7303 27.6615 16.5712 27.8695 17.4075 28.0949C17.6308 28.1549 17.8388 28.1545 18.0523 28.0826C18.0824 28.0814 18.1133 28.0843 18.1426 28.0784C18.8285 27.9444 19.5139 27.8091 20.1998 27.6754C21.0721 27.5055 21.9453 27.3372 22.8176 27.1676C22.9896 27.1338 23.0036 27.1186 23.0214 26.9486C23.0396 26.7752 23.0544 26.6015 23.0701 26.4272C23.1358 25.7021 23.2001 24.9765 23.2679 24.2514C23.3569 23.2996 23.4497 22.3482 23.5382 21.3964C23.5619 21.1452 23.5581 21.1444 23.3048 21.1444C21.6606 21.1444 20.0168 21.1444 18.373 21.1444C18.2968 21.1444 18.2214 21.1511 18.1455 21.1545C18.0468 21.1503 17.9481 21.1427 17.8498 21.1427C14.6233 21.1427 11.3976 21.1427 8.17101 21.1414C7.83082 21.1414 7.8825 21.1896 7.82997 20.8408C7.65924 19.7008 7.49867 18.5592 7.33429 17.4188C7.31608 17.2911 7.29659 17.1634 7.28007 17.0357C7.25592 16.8429 7.25634 16.8412 7.43216 16.7655C7.94139 16.5457 8.45105 16.3266 8.96113 16.108C11.8466 14.8725 14.7317 13.6374 17.6164 12.3998C17.6736 12.3753 17.7507 12.3727 17.7947 12.2784H7.43046C7.37708 12.2784 7.3237 12.2793 7.27074 12.2784C7.07756 12.2755 7.07841 12.2751 7.05087 12.0751C6.87082 10.7833 6.68992 9.49155 6.50986 8.19938C6.49461 8.0869 6.49461 7.97189 6.45775 7.8628C6.55392 7.83067 6.6539 7.84378 6.75219 7.84378C14.1564 7.84251 21.5606 7.84208 28.9648 7.84124C29.0106 7.84124 29.0559 7.83997 29.1021 7.84124C29.2196 7.84406 29.28 7.90255 29.2834 8.01671C29.2847 8.06238 29.2834 8.10762 29.2834 8.15329C29.2834 9.35329 29.2834 10.5533 29.2834 11.7533C29.2834 11.8899 29.3173 12.0472 29.2609 12.1562C29.1974 12.2797 29.0161 12.2932 28.8847 12.3482C25.6209 13.7021 22.3558 15.0539 19.0911 16.4061C19.0327 16.4302 18.9657 16.4433 18.903 16.5148H28.1281C28.1891 16.5148 28.2497 16.5165 28.3107 16.5148C28.3895 16.5135 28.42 16.5524 28.4124 16.6277C28.3997 16.7562 28.3853 16.8839 28.3751 17.0129C28.3247 17.6256 28.2776 18.2378 28.226 18.8505C28.1569 19.6666 28.0828 20.4827 28.0137 21.2991C27.9608 21.9262 27.9154 22.5545 27.8625 23.1816C27.7938 23.9905 27.7193 24.7985 27.6511 25.6074C27.5968 26.2501 27.5515 26.8932 27.4973 27.5359C27.4295 28.3372 27.3537 29.1376 27.2876 29.9389C27.2456 30.4416 27.3452 30.3338 26.8618 30.4877C24.0314 31.3888 21.1997 32.2864 18.3684 33.185C18.2819 33.2124 18.1968 33.2484 18.1027 33.2446C17.4524 33.0606 16.8025 32.8737 16.1514 32.6923Z" fill="#DF78ED"/>
</svg>
