<svg width="42" height="41" viewBox="0 0 42 41" fill="none" xmlns="http://www.w3.org/2000/svg">
<path d="M20.4877 0H21.3893C22.2532 0.0283484 22.863 0.486591 23.451 1.0619C29.3054 6.78993 35.1531 12.5246 41.041 18.22C42.1178 19.2615 42.1253 20.4442 41.8435 21.7208C41.7567 22.1137 41.4349 22.4065 41.1449 22.691C38.2844 25.4979 35.4113 28.292 32.5447 31.0928C29.5531 34.0164 26.5567 36.9356 23.5658 39.8601C23.3632 40.0582 23.1609 40.2563 22.9471 40.4434C22.2614 41.0438 21.4258 41.0107 20.5888 40.9924C19.8444 40.9761 19.2736 40.6379 18.7618 40.1386C12.7929 34.3149 6.83322 28.4824 0.854751 22.668C0.355975 22.1828 0.0761828 21.6295 0 20.9608V19.9209C0.0515857 19.0928 0.537379 18.5168 1.11405 17.9572C5.00757 14.1799 8.88264 10.3842 12.7649 6.5955C12.8421 6.52012 12.9217 6.44708 13.002 6.37471C13.2469 6.15426 13.4878 6.1626 13.7255 6.38338C14.072 6.70489 14.4054 7.03907 14.7436 7.36924C15.7961 8.39645 16.8446 9.428 17.904 10.4485C18.1848 10.719 18.2781 10.9798 18.1824 11.3727C17.8404 12.7741 18.2928 13.896 19.5312 14.6774C19.9244 14.9256 20.0279 15.2217 20.0272 15.6393C20.0207 18.9854 20.0149 22.3315 20.032 25.6773C20.0347 26.1845 19.8745 26.5021 19.4263 26.7845C18.3802 27.4445 17.9146 28.4364 18.0977 29.6327C18.2876 30.8734 19.03 31.7448 20.2971 32.054C22.423 32.5726 24.0481 30.9818 24.0717 29.3242C24.0871 28.2493 23.6689 27.4049 22.7732 26.8002C22.4685 26.5944 22.3438 26.3583 22.3441 26.0055C22.3462 22.6327 22.3441 19.2602 22.3482 15.8874C22.3482 15.7677 22.3444 15.645 22.3831 15.5302C22.4527 15.3221 22.6 15.2658 22.7992 15.3601C22.9105 15.4128 22.9935 15.5056 23.0807 15.5903C24.2514 16.7282 25.4119 17.8768 26.5909 19.0067C26.8959 19.2992 26.9807 19.5884 26.8901 20.0046C26.4928 21.8326 27.6342 23.3891 29.5196 23.6369C30.6446 23.7846 32.0248 23.0292 32.5154 21.9967C33.3346 20.2727 32.457 18.3804 30.591 17.8588C30.137 17.7321 29.6693 17.7274 29.2115 17.8194C28.8347 17.8952 28.5604 17.7918 28.2949 17.5306C26.9677 16.2249 25.6357 14.9232 24.2969 13.6289C24.0242 13.3651 23.9525 13.0989 24.0191 12.7334C24.2582 11.4211 23.7499 10.3255 22.5863 9.63478C21.9574 9.26124 21.2588 9.12284 20.539 9.28192C20.1088 9.37697 19.8191 9.26525 19.5212 8.97009C18.1797 7.64072 16.819 6.32936 15.4719 5.00532C15.0032 4.54474 15.0029 4.41834 15.4764 3.9521C16.5628 2.88219 17.6686 1.8313 18.743 0.750398C19.2315 0.259137 19.825 0.0703706 20.4874 0.00100053L20.4877 0Z" fill="#DF78ED"/>
</svg>
