<svg width="37" height="41" viewBox="0 0 37 41" fill="none" xmlns="http://www.w3.org/2000/svg">
<path d="M0 0H37C36.8954 1.37317 36.8132 2.69153 36.6917 4.00674C36.1759 9.59244 35.639 15.1768 35.1288 20.763C34.6823 25.6513 34.2514 30.5414 33.8353 35.4325C33.7026 36.9926 33.7348 36.9993 32.1921 37.4212C27.9307 38.5864 23.6729 39.7659 19.4001 40.8888C18.8159 41.0424 18.1162 41.0343 17.5302 40.8802C13.1261 39.7214 8.74124 38.4907 4.3385 37.3264C3.59882 37.131 3.29414 36.7895 3.23449 36.0517C2.96881 32.7567 2.66413 29.4644 2.36495 26.1721C1.91435 21.2168 1.45137 16.2628 1.0026 11.3076C0.665803 7.58615 0.342308 3.86385 0 0ZM8.2108 23.5223C8.42509 25.7555 8.65681 27.8751 8.81374 30.0004C8.85917 30.6156 9.09135 30.8587 9.67915 31.0114C12.4456 31.7295 15.1978 32.4978 17.9602 33.2303C18.2745 33.3134 18.6439 33.3723 18.9467 33.2927C21.8072 32.5432 24.6627 31.7758 27.5062 30.9674C27.7815 30.8892 28.139 30.5181 28.1656 30.2543C28.5469 26.501 28.8782 22.7427 29.2205 18.9854C29.2884 18.2395 29.3504 17.4931 29.4238 16.6457H12.4488C12.3093 15.1175 12.1776 13.6742 12.0372 12.1379H29.8308C29.9813 10.5572 30.1245 9.05054 30.2727 7.49134H6.75622C7.18434 12.1559 7.60373 16.7261 8.03185 21.388H24.0754C23.9019 23.2541 23.7578 25.0056 23.55 26.7495C23.5266 26.9454 23.1677 27.1701 22.9181 27.2622C20.1452 28.2876 17.3517 28.6807 14.5288 27.4262C14.4366 27.3853 14.3352 27.3484 14.2356 27.3399C13.6235 27.2873 13.361 26.9728 13.3229 26.3648C13.2628 25.4172 13.1284 24.474 13.0247 23.5228H8.21126L8.2108 23.5223Z" fill="#DF78ED"/>
</svg>
