<svg width="42" height="41" viewBox="0 0 42 41" fill="none" xmlns="http://www.w3.org/2000/svg">
<path d="M42 0.416118C42 0.138706 41.8608 0 41.5824 0C27.8611 0 14.1397 0 0.418397 0C0.139466 0 0 0.138437 0 0.41531C0 13.81 0 27.2046 0 40.5993C0 40.8664 0.133942 41 0.401827 41C14.1335 41 27.8652 41 41.5973 41C41.8658 41 42 40.8667 42 40.6001C42 33.9029 42 27.2054 42 20.5083C42 13.8112 42 7.11364 42 0.416523V0.416118ZM22.8826 25.7945C22.8826 25.7947 22.8824 25.7949 22.8822 25.7949C22.8816 25.7949 22.8806 25.7949 22.8795 25.7949C22.8778 25.7949 22.8764 25.7963 22.8764 25.798C22.8764 27.9912 22.9095 30.1848 22.8652 32.3768C22.8329 33.9741 22.3643 35.4319 21.0661 36.5234C20.2318 37.2246 19.2342 37.5655 18.163 37.7014C16.7756 37.8777 15.4123 37.7855 14.1107 37.2315C12.7723 36.6617 11.8178 35.7029 11.1517 34.4485C11.0622 34.2802 11.1016 34.207 11.2574 34.1161C12.1973 33.5681 13.1335 33.0145 14.0652 32.4532C14.2375 32.3497 14.3199 32.3618 14.4136 32.5454C14.5805 32.8738 14.7959 33.1742 15.0262 33.4658C15.7628 34.3975 16.9194 34.5006 17.8817 34.1383C18.5296 33.894 18.7537 33.3255 18.8577 32.7096C18.9016 32.4496 18.9149 32.1823 18.9149 31.9182C18.9182 27.6628 18.9202 23.407 18.9107 19.1516C18.9099 18.8705 18.9836 18.7961 19.2711 18.8005C20.3788 18.8175 21.4874 18.8147 22.5955 18.8018C22.8316 18.7989 22.8896 18.8604 22.8884 19.0897C22.8789 21.3248 22.8826 23.5594 22.8826 25.7945ZM37.3637 35.9619C37.3637 35.962 37.3636 35.9621 37.3635 35.9622C36.475 36.8401 35.3826 37.3334 34.1652 37.5882C33.5099 37.7252 32.8462 37.7996 32.4034 37.7819C30.3002 37.777 28.5579 37.3577 27.0334 36.244C26.2264 35.6548 25.6009 34.9139 25.1026 34.0615C24.987 33.8641 25.0417 33.7905 25.219 33.6918C26.1519 33.1726 27.0819 32.6477 28.0048 32.1119C28.1738 32.0136 28.2414 32.0395 28.3408 32.1932C28.8217 32.9373 29.4046 33.5928 30.2447 33.9571C31.3926 34.4553 32.5703 34.5415 33.724 33.9879C34.9962 33.3776 35.1375 31.8414 34.0169 30.9946C33.3835 30.5162 32.6403 30.2363 31.9154 29.9258C30.7141 29.4118 29.5065 28.9204 28.4191 28.1772C25.7227 26.3344 25.6092 22.5735 27.2057 20.6231C28.1366 19.486 29.3715 18.8814 30.8131 18.6784C32.1743 18.4863 33.5239 18.5692 34.8085 19.1055C35.9983 19.6021 36.8376 20.4763 37.495 21.5399C37.5762 21.6713 37.543 21.7194 37.4212 21.7947C36.4962 22.3673 35.5741 22.9447 34.6573 23.5303C34.5061 23.627 34.4535 23.5829 34.3786 23.4531C34.2186 23.1777 34.0306 22.9205 33.7998 22.6952C33.0902 22.0021 32.2352 21.8189 31.2915 22.0717C29.8263 22.4639 29.8259 24.1628 30.5629 24.8482C31.0185 25.272 31.5716 25.5284 32.132 25.7767C33.2795 26.2846 34.4635 26.7165 35.555 27.3421C36.5488 27.9115 37.4453 28.584 38.0352 29.5772C39.0596 31.3014 39.0671 34.2785 37.3638 35.9616C37.3637 35.9616 37.3637 35.9618 37.3637 35.9619Z" fill="#DF78ED"/>
</svg>
