<svg width="42" height="39" viewBox="0 0 42 39" fill="none" xmlns="http://www.w3.org/2000/svg">
<path d="M16.4392 19.233C16.4489 16.7091 18.5236 14.6711 21.0689 14.6854C23.5475 14.6993 25.5807 16.7963 25.5648 19.3215C25.5489 21.8145 23.4656 23.8618 20.9576 23.8497C18.4738 23.8375 16.4296 21.7488 16.4392 19.2326V19.233Z" fill="#DF78ED"/>
<path d="M41.1258 16.2956C40.5829 15.5037 39.8851 14.8747 39.1078 14.3288C37.5345 13.224 35.7893 12.4829 33.9629 11.9289C33.5894 11.8157 33.5061 11.673 33.6026 11.2944C33.9999 9.73882 34.2149 8.15512 34.2395 6.5478C34.2492 5.53507 34.1333 4.539 33.8702 3.56065C33.2118 1.11286 31.3965 -0.215231 28.9877 0.028576C27.5195 0.177222 26.2183 0.80202 24.9759 1.56435C23.6063 2.40448 22.3839 3.43215 21.2349 4.54907C21.0032 4.77412 20.8518 4.74877 20.6471 4.54108C20.08 3.96491 19.4725 3.43249 18.8379 2.93307C17.2349 1.67167 15.5402 0.589818 13.508 0.150479C11.3171 -0.322895 9.42329 0.59989 8.46892 2.63092C8.02805 3.56898 7.83061 4.56991 7.7739 5.5955C7.66671 7.52963 7.89527 9.43424 8.3721 11.3065C8.46961 11.6893 8.38836 11.8379 8.00869 11.9386C7.48171 12.0783 6.96822 12.2755 6.45923 12.4745C4.61897 13.1945 2.8821 14.0902 1.48548 15.5367C-0.0259429 17.1016 -0.409763 19.0438 0.452622 20.7778C1.02524 21.9292 1.92013 22.7891 2.96405 23.5038C4.54808 24.5881 6.28668 25.3355 8.11622 25.8884C8.3237 25.9509 8.65841 25.9106 8.54016 26.3583C8.09617 28.0413 7.7943 29.747 7.73483 31.4956C7.68676 32.9133 7.80398 34.298 8.31747 35.6282C9.06644 37.5675 10.7203 38.6553 12.7214 38.5052C14.064 38.4045 15.2878 37.9131 16.4496 37.2532C18.0219 36.3603 19.4071 35.2197 20.7055 33.9702C20.9469 33.7382 21.0755 33.7739 21.2875 33.9896C21.94 34.6523 22.6433 35.26 23.3822 35.8248C24.9051 36.9889 26.5126 37.9857 28.4175 38.3951C30.7685 38.9005 32.6765 37.8985 33.6081 35.6709C34.0445 34.6273 34.1987 33.5249 34.2219 32.4087C34.2637 30.4131 33.9428 28.4588 33.4266 26.5382C33.3221 26.1496 33.4113 26.0006 33.7844 25.9093C34.6271 25.7026 35.4359 25.3873 36.2271 25.0347C37.9888 24.2498 39.6638 23.3368 40.9086 21.7923C42.2824 20.0885 42.3644 18.1033 41.1254 16.2963L41.1258 16.2956ZM22.4531 5.95079C24.062 4.44662 25.7346 3.03414 27.8207 2.23082C28.5019 1.96861 29.2052 1.7769 29.9549 1.89498C31.0102 2.06134 31.5956 2.74692 31.9494 3.69123C32.3031 4.63659 32.3681 5.62293 32.3384 6.57975C32.3667 8.11101 32.0939 9.56205 31.773 11.0079C31.726 11.2197 31.6513 11.2732 31.4307 11.2228C29.8916 10.8714 28.3425 10.5227 26.7678 10.4511C25.8266 10.4084 25.311 9.97013 24.8145 9.24982C24.1236 8.24785 23.3158 7.32819 22.4956 6.4259C22.3535 6.26961 22.2273 6.16195 22.4535 5.95044L22.4531 5.95079ZM12.1826 21.4537C12.9126 22.7957 13.6017 24.0866 14.425 25.3845C13.3082 25.2372 12.2985 25.0525 11.2947 24.8337C11.0384 24.7777 10.9482 24.6999 11.0502 24.4134C11.397 23.441 11.7494 22.4716 12.1826 21.4537ZM12.1719 17.0614C11.5972 15.7628 11.1889 14.5389 10.7929 13.3105C10.739 13.1431 10.813 13.0667 10.9842 13.0281C12.137 12.769 13.2947 12.5357 14.4683 12.3936C14.6346 12.3735 14.9078 12.3408 14.7055 12.6593C13.8175 14.0582 12.9838 15.4891 12.1723 17.061L12.1719 17.0614ZM13.2732 19.5338C13.184 19.3511 13.1806 19.2066 13.2701 19.0233C14.3912 16.7328 15.663 14.5313 17.0914 12.4197C17.2774 12.1446 17.5004 12.0359 17.8085 12.0352C18.8722 12.0321 19.9313 11.8817 20.997 11.9484C22.0624 11.8813 23.1215 12.0335 24.1851 12.0355C24.4832 12.0362 24.6838 12.1543 24.8591 12.412C26.2654 14.483 27.5254 16.638 28.6271 18.8875C28.7457 19.1295 28.7529 19.3199 28.6316 19.5668C27.6575 21.5548 26.5704 23.476 25.3542 25.3251C25.1841 25.5838 25.0008 25.68 24.6948 25.7009C23.2246 25.8009 21.7536 25.8881 20.2799 25.8481C19.2031 25.819 18.1277 25.7349 17.0509 25.688C16.8376 25.6786 16.7273 25.5731 16.6194 25.4102C15.3725 23.5268 14.2636 21.5648 13.2729 19.5338H13.2732ZM27.6924 25.1372C28.4203 23.9609 29.089 22.7502 29.783 21.4481C30.2232 22.481 30.579 23.4517 30.9241 24.427C31.0099 24.6697 30.9715 24.7757 30.716 24.8302C29.7671 25.032 28.8173 25.2268 27.8529 25.3386C27.782 25.347 27.7104 25.4025 27.645 25.3275C27.5704 25.2417 27.6578 25.1938 27.6928 25.1372H27.6924ZM29.7536 17.0593C28.9144 15.4346 28.0244 13.954 27.1101 12.4884C27.0569 12.4485 27.0178 12.3738 27.0693 12.3405C27.1796 12.2686 27.2989 12.2932 27.3995 12.3835C28.6094 12.4978 29.792 12.7656 30.977 13.0191C31.152 13.0566 31.2042 13.108 31.1465 13.29C30.7526 14.5333 30.3176 15.7607 29.7529 17.0593H29.7536ZM20.8006 7.68105C20.8992 7.57165 20.9953 7.47545 21.1315 7.63382C21.8017 8.41386 22.4856 9.18279 23.1371 10.0719H18.8182C19.4638 9.20918 20.1211 8.43609 20.801 7.68105H20.8006ZM9.92571 3.90656C10.4855 2.20582 11.6173 1.57025 13.3452 1.99084C15.0112 2.39649 16.3867 3.34428 17.7148 4.37438C18.3286 4.85053 18.9012 5.37496 19.4552 5.92057C19.6184 6.08103 19.6436 6.18209 19.4766 6.36477C18.4085 7.53588 17.4074 8.76325 16.4928 10.0594C16.358 10.2507 16.1875 10.3428 15.961 10.3615C14.1439 10.5119 12.3479 10.8012 10.5754 11.2256C10.2819 11.2958 10.2006 11.2117 10.1442 10.9565C9.82612 9.51064 9.56125 8.05857 9.58442 6.49432C9.55745 5.66357 9.64078 4.77169 9.92536 3.90656H9.92571ZM9.23656 23.973C9.17432 24.1637 9.09583 24.2557 8.8766 24.1877C6.65667 23.4986 4.51835 22.6547 2.82781 20.9675C2.25208 20.3927 1.8648 19.7161 1.8323 18.8833C1.88313 18.1616 2.16598 17.5549 2.63555 17.0245C3.76661 15.7475 5.22824 14.9803 6.76559 14.3392C7.38074 14.0829 8.02528 13.8988 8.64804 13.6606C8.90115 13.5637 8.98829 13.6338 9.06263 13.8808C9.58926 15.6336 10.2639 17.3309 11.0173 18.9965C11.0941 19.1664 11.0851 19.306 11.0111 19.4713C10.3489 20.9439 9.73899 22.4376 9.23726 23.9737L9.23656 23.973ZM19.4507 32.5973C17.978 33.975 16.4382 35.2576 14.5827 36.095C13.8721 36.4159 13.138 36.6288 12.341 36.6204C11.3541 36.6104 10.664 36.1602 10.2214 35.3C9.67502 34.2386 9.57474 33.0901 9.58338 32.3344C9.58995 30.1863 9.92986 28.5022 10.3268 26.824C10.406 26.4899 10.6076 26.5643 10.8026 26.6094C12.0595 26.8998 13.3261 27.1915 14.6083 27.2582C15.5291 27.3061 16.0392 27.7375 16.5132 28.4487C17.3836 29.7553 18.4064 30.9486 19.4531 32.1173C19.618 32.3014 19.6481 32.4122 19.4503 32.5973H19.4507ZM21.1436 30.8212C21.0572 30.9177 20.9808 31.0577 20.8234 30.8868C19.8888 29.8706 19.0167 28.8051 18.1557 27.5996C20.0454 27.7225 21.8431 27.7461 23.7498 27.5958C23.1772 28.4494 22.5759 29.1506 21.9884 29.8616C21.7169 30.1898 21.4282 30.5037 21.1436 30.8212ZM32.0652 34.5693C31.5033 36.369 30.2951 37.0344 28.4832 36.5364C26.8055 36.0752 25.4092 35.1062 24.0769 34.0348C23.5326 33.5971 23.0354 33.1005 22.507 32.6428C22.3093 32.4715 22.2643 32.3545 22.4704 32.1336C23.7401 30.7757 24.8836 29.3125 25.9338 27.7788C26.145 27.4704 26.4141 27.3842 26.7332 27.3519C28.2128 27.2033 29.6755 26.9553 31.124 26.6184C31.3823 26.5584 31.5725 26.5629 31.6582 26.9039C32.0832 28.5925 32.3674 30.2995 32.411 32.0794C32.3781 32.8973 32.3218 33.7465 32.0652 34.5693ZM39.2969 20.8397C38.0936 22.1594 36.5365 22.9148 34.9234 23.5698C34.3339 23.8091 33.716 23.9772 33.116 24.1922C32.8882 24.2738 32.7685 24.253 32.6869 23.9925C32.2073 22.4633 31.596 20.9848 30.9373 19.5262C30.8529 19.339 30.8643 19.1858 30.9456 19.0063C31.7039 17.3246 32.3871 15.6135 32.9276 13.8474C32.9722 13.7015 32.9919 13.5435 33.2239 13.6189C35.3159 14.2968 37.3533 15.0783 38.9906 16.6321C39.5414 17.1548 39.9916 17.7403 40.124 18.5173C40.1444 18.6371 40.1603 18.7576 40.1721 18.8364C40.1434 19.6522 39.8038 20.2847 39.2973 20.84L39.2969 20.8397Z" fill="#DF78ED"/>
</svg>
