<svg width="42" height="25" viewBox="0 0 42 25" fill="none" xmlns="http://www.w3.org/2000/svg">
<path d="M0.0011643 20.3725C0.0677663 20.0741 0.161793 19.7838 0.254948 19.4926C0.472602 18.8137 0.73901 18.1534 1.0668 17.5179C1.58481 16.5132 2.23473 15.6018 3.07182 14.8241C3.90979 14.0455 4.87094 13.4568 5.94746 13.0469C6.66136 12.7753 7.39703 12.5846 8.15403 12.4683C8.57236 12.4041 8.99243 12.3585 9.41512 12.33C10.0298 12.2887 10.6449 12.2913 11.2591 12.3155C11.8494 12.3389 12.4361 12.4083 13.0182 12.5139C13.8779 12.6701 14.708 12.9166 15.5064 13.2652C16.1593 13.5504 16.774 13.9012 17.3551 14.3082C17.928 14.7092 18.4612 15.1566 18.9732 15.6304C19.6505 16.257 20.2887 16.9219 20.959 17.5553C21.4122 17.9831 21.8867 18.3854 22.4099 18.7307C23.0968 19.1836 23.8495 19.4641 24.6683 19.5901C25.1593 19.6655 25.6512 19.691 26.144 19.6591C26.7895 19.6174 27.4107 19.4633 28.0058 19.2125C28.701 18.9197 29.3217 18.514 29.8885 18.0257C30.4043 17.5813 30.8662 17.0888 31.2841 16.5558C31.3011 16.5341 31.3193 16.5132 31.3381 16.4928C31.3437 16.4868 31.3533 16.4843 31.3642 16.4788C31.3938 16.4983 31.379 16.526 31.3729 16.5486C31.0133 17.881 30.5153 19.1568 29.7561 20.3261C29.3169 21.003 28.8011 21.6177 28.1986 22.1617C27.3811 22.8998 26.4487 23.4571 25.4122 23.8496C24.6935 24.1216 23.9522 24.3093 23.1913 24.4276C22.8004 24.4885 22.4073 24.5264 22.0138 24.5634C21.9602 24.5856 21.9045 24.5694 21.8497 24.5745C21.8105 24.5745 21.7709 24.5745 21.7317 24.5745C21.6394 24.5826 21.545 24.5579 21.454 24.5886H20.6151C20.4967 24.5592 20.3762 24.5813 20.2564 24.5745C20.2012 24.5745 20.1454 24.5745 20.0902 24.5745C20.0292 24.5745 19.9683 24.5745 19.9073 24.5745C18.9553 24.5592 18.0298 24.3842 17.1205 24.1194C15.6326 23.6857 14.321 22.9394 13.1431 21.9591C12.7674 21.6462 12.4009 21.3231 12.0522 20.9813C11.4959 20.4364 10.9435 19.8877 10.3811 19.3496C9.96143 18.9482 9.51567 18.5749 9.03292 18.2462C8.30073 17.7477 7.49236 17.4425 6.60869 17.3212C6.29005 17.2774 5.96879 17.2416 5.65014 17.2467C4.88139 17.259 4.13353 17.3978 3.42137 17.6958C2.68135 18.0053 2.02839 18.442 1.42854 18.9639C0.956228 19.3747 0.545734 19.8374 0.149169 20.3151C0.116956 20.3538 0.088661 20.3968 0.0364242 20.4134C0.0111764 20.4117 -0.00536531 20.4032 0.0015996 20.3742L0.0011643 20.3725Z" fill="#DF78ED"/>
<path d="M20.4179 0C20.754 0 21.0905 0 21.4266 0C21.8405 0.0183046 22.2541 0.0408661 22.665 0.0898203C23.3075 0.166444 23.9413 0.284786 24.5647 0.458467C25.9685 0.849249 27.227 1.50949 28.3653 2.3979C28.7954 2.73335 29.2011 3.09518 29.6008 3.46468C30.1497 3.97167 30.6607 4.5157 31.2018 5.02994C31.7163 5.51905 32.2418 5.9954 32.8364 6.39427C33.5272 6.85784 34.2825 7.1554 35.1109 7.28396C35.4661 7.33887 35.8222 7.37761 36.18 7.37676C37.0819 7.3742 37.9412 7.18264 38.7544 6.79356C39.5723 6.40193 40.274 5.8613 40.9074 5.22831C41.2108 4.92522 41.4912 4.60254 41.7593 4.26966C41.788 4.23432 41.8115 4.19473 41.8372 4.15727C41.8842 4.1892 41.8599 4.22964 41.8499 4.26753C41.7097 4.79155 41.5464 5.30919 41.3519 5.81661C41.0398 6.62925 40.6554 7.40655 40.1687 8.13406C39.3751 9.32002 38.3665 10.2863 37.1028 10.99C36.1882 11.4991 35.2088 11.8354 34.1793 12.0385C33.5951 12.1538 33.0053 12.2262 32.4102 12.2628C31.8004 12.3007 31.1896 12.3045 30.5806 12.2747C29.3713 12.2156 28.1882 12.0104 27.0468 11.6017C26.1492 11.2803 25.3138 10.8448 24.5346 10.3046C23.8103 9.80275 23.1495 9.2285 22.5218 8.61679C22.0765 8.18258 21.6351 7.74412 21.1884 7.31077C20.7187 6.85529 20.2329 6.41683 19.6993 6.03158C18.9475 5.48883 18.1156 5.14019 17.1893 5.00099C16.703 4.92777 16.2159 4.90095 15.7275 4.93203C15.0489 4.97545 14.3977 5.13976 13.7756 5.4122C13.0499 5.73019 12.4105 6.17163 11.8237 6.6931C11.3427 7.12092 10.9217 7.60024 10.5204 8.09787C10.4686 8.10043 10.4773 8.07276 10.4921 8.04253C10.5983 7.60365 10.7372 7.17413 10.8899 6.74929C11.2482 5.75233 11.7114 4.8056 12.3282 3.93464C13.2619 2.61586 14.4647 1.60953 15.9595 0.943326C16.7257 0.601923 17.5258 0.366943 18.3537 0.218804C18.9083 0.119618 19.4659 0.0498056 20.0292 0.0263927C20.1594 0.0208587 20.2891 0.00979083 20.4193 0.00170275L20.4179 0Z" fill="#DF78ED"/>
</svg>
