<svg width="42" height="41" viewBox="0 0 42 41" fill="none" xmlns="http://www.w3.org/2000/svg">
<path d="M41.9981 40.7959C41.9985 27.2691 41.9985 13.7419 41.9985 0.215153C41.9985 0.0721352 41.9255 0.000626534 41.7795 0.000626534C27.9244 0.000626534 14.0684 0.000626534 0.21288 0.00137794C-0.0345681 0.00137794 0.00199108 -0.0301811 0.00199108 0.208766C0.00122142 13.7356 0.00122142 27.2627 0.00199108 40.7895C0.00199108 41.0202 -0.0353378 40.9995 0.213265 40.9995C7.14104 40.9995 14.0688 40.9995 20.9966 40.9995C27.9244 40.9995 34.8618 40.9995 41.7945 40.9995C42.0339 40.9995 41.9981 41.0172 41.9981 40.7959ZM23.9906 22.1825C23.9933 22.2362 23.9679 22.2587 23.9136 22.2561C23.8755 22.2542 23.837 22.2561 23.7989 22.2561C22.1076 22.2561 20.4159 22.2561 18.7245 22.2561C18.5202 22.2561 18.5387 22.2298 18.5387 22.4331C18.5387 27.3589 18.5387 32.2851 18.5383 37.2109C18.5383 37.4536 18.5629 37.4206 18.3266 37.421C17.1702 37.4221 16.0141 37.4217 14.8577 37.421C14.653 37.421 14.6715 37.4469 14.6715 37.2444C14.6715 34.7768 14.6715 32.3092 14.6715 29.8415C14.6715 27.3739 14.6715 24.8969 14.6715 22.4248C14.6715 22.2343 14.6919 22.2542 14.4937 22.2542C12.7877 22.2539 11.0821 22.2542 9.37615 22.2539C9.18066 22.2539 9.20221 22.2719 9.20182 22.0799C9.20028 21.4175 9.20105 20.7552 9.19797 20.0928C9.19643 19.7566 9.21799 19.4218 9.23492 19.0863C9.23569 19.0675 9.23761 19.0491 9.23992 19.0307C9.25416 18.9206 9.25416 18.9191 9.37076 18.9105C9.43734 18.9056 9.5043 18.9052 9.57126 18.9045C11.6355 18.8876 13.6994 18.8894 15.7636 18.8898C18.4347 18.8898 21.1055 18.8898 23.7766 18.8906C23.9948 18.8906 23.9648 18.8676 23.9687 19.0765C23.9871 20.0748 23.996 21.0726 23.991 22.0709C23.991 22.1081 23.989 22.1457 23.991 22.1828L23.9906 22.1825ZM38.6651 32.4121C38.6466 33.1259 38.53 33.8221 38.2333 34.4807C37.8511 35.3287 37.2469 35.9929 36.4619 36.505C35.7703 36.9562 35.0068 37.2391 34.2018 37.4277C33.7492 37.5337 33.2897 37.5776 32.8264 37.596C32.6213 37.6043 32.4157 37.6107 32.2226 37.6178C31.5568 37.5987 30.903 37.578 30.2576 37.4582C29.187 37.259 28.2057 36.8533 27.3082 36.2506C27.0127 36.0519 26.7348 35.8314 26.4697 35.5958C26.2927 35.4384 26.1295 35.2693 25.9833 35.0837C25.7416 34.7768 25.5122 34.4612 25.3013 34.1332C25.2455 34.0464 25.1982 33.9547 25.1451 33.8661C25.1062 33.8014 25.1208 33.7601 25.1863 33.7177C25.461 33.5392 25.7535 33.3908 26.0383 33.2292C26.7279 32.8381 27.4195 32.4508 28.1102 32.0616C28.1183 32.0571 28.1272 32.0529 28.1352 32.0484C28.2495 31.9857 28.2422 31.9594 28.3323 32.0942C28.5809 32.4666 28.8583 32.816 29.1855 33.1263C29.4568 33.3837 29.7469 33.6203 30.0698 33.8127C30.3569 33.9837 30.6748 34.0877 31.0011 34.1647C31.7885 34.3507 32.5705 34.3507 33.3447 34.0975C33.5264 34.0381 33.6996 33.96 33.8627 33.8616C34.445 33.5103 34.7282 32.9944 34.724 32.3324C34.7201 31.7411 34.4573 31.276 33.9643 30.9318C33.621 30.6921 33.2493 30.5013 32.8718 30.3209C32.1856 29.9933 31.4798 29.7074 30.7844 29.3986C30.0536 29.074 29.3352 28.7276 28.6717 28.2805C27.6238 27.5745 26.8741 26.6488 26.4747 25.4612C26.38 25.1794 26.3523 24.8871 26.3181 24.596C26.2688 24.1782 26.2727 23.7582 26.2857 23.3385C26.3192 22.2711 26.7164 21.3401 27.4121 20.529C28.1295 19.6927 29.0619 19.19 30.126 18.897C30.5759 18.773 31.0354 18.7294 31.4979 18.7091C32.3022 18.6742 33.1027 18.7241 33.8931 18.8737C34.3403 18.9582 34.7586 19.1333 35.1592 19.3459C36.0778 19.8328 36.7659 20.5515 37.3247 21.3995C37.3778 21.4799 37.4775 21.5599 37.4544 21.6527C37.4332 21.7361 37.3174 21.7748 37.24 21.8282C36.3865 22.4188 35.5117 22.9782 34.6278 23.5245C34.5554 23.5692 34.51 23.5609 34.4561 23.5057C34.3438 23.3904 34.2476 23.263 34.1602 23.1292C33.6945 22.4169 33.0311 22.0386 32.1645 22.0033C31.8377 21.9897 31.5164 22.0104 31.2035 22.1152C30.5412 22.3373 30.151 22.8636 30.1237 23.5481C30.0971 24.2011 30.3688 24.7027 30.898 25.0833C31.2305 25.3222 31.5987 25.5003 31.9713 25.6694C32.7117 26.0049 33.4683 26.3051 34.2037 26.6518C34.8402 26.952 35.469 27.2668 36.062 27.6444C36.6212 28.0002 37.1357 28.406 37.5567 28.9169C38.0616 29.5293 38.3664 30.2304 38.5281 30.9953C38.627 31.4627 38.6766 31.9353 38.6643 32.4121H38.6651Z" fill="#DF78ED"/>
</svg>
